<mxfile host="Electron" agent="Mozilla/5.0 (Windows NT 10.0; Win64; x64) AppleWebKit/537.36 (KHTML, like Gecko) draw.io/28.0.6 Chrome/138.0.7204.100 Electron/37.2.3 Safari/537.36" version="28.0.6">
  <diagram name="Page-1" id="2ca16b54-16f6-2749-3443-fa8db7711227">
    <mxGraphModel dx="922" dy="914" grid="1" gridSize="10" guides="1" tooltips="1" connect="1" arrows="1" fold="1" page="1" pageScale="1" pageWidth="1100" pageHeight="850" background="#ffffff" math="0" shadow="0">
      <root>
        <mxCell id="0" />
        <mxCell id="1" parent="0" />
        <mxCell id="2ed32ef02a7f4228-1" value="&lt;div style=&quot;box-sizing: border-box ; width: 100% ; padding: 2px&quot;&gt;&lt;br&gt;&lt;/div&gt;" style="verticalAlign=top;align=center;overflow=fill;html=1;rounded=0;shadow=0;comic=0;labelBackgroundColor=none;strokeWidth=1;fontFamily=Verdana;fontSize=12;" parent="1" vertex="1">
          <mxGeometry x="102" y="97" width="200" height="90" as="geometry" />
        </mxCell>
        <mxCell id="SjU_2BTI9DgWFUzOwO9X-2" value="game" style="rounded=0;whiteSpace=wrap;html=1;" parent="1" vertex="1">
          <mxGeometry x="102" y="97" width="200" height="20" as="geometry" />
        </mxCell>
        <mxCell id="SjU_2BTI9DgWFUzOwO9X-4" value="&lt;div&gt;username&lt;/div&gt;&lt;div&gt;password&lt;/div&gt;&lt;div&gt;score&lt;/div&gt;&lt;div&gt;best-score&lt;/div&gt;&lt;div&gt;&lt;br&gt;&lt;/div&gt;" style="text;html=1;strokeColor=none;fillColor=none;align=left;verticalAlign=top;whiteSpace=wrap;rounded=0;" parent="1" vertex="1">
          <mxGeometry x="113" y="117" width="90" height="60" as="geometry" />
        </mxCell>
        <mxCell id="SjU_2BTI9DgWFUzOwO9X-6" value="&lt;div&gt;VACHAR(12)&lt;/div&gt;&lt;div&gt;VARCHAR(15)&lt;/div&gt;int&lt;div&gt;int&lt;/div&gt;" style="text;html=1;strokeColor=none;fillColor=none;align=left;verticalAlign=top;whiteSpace=wrap;rounded=0;" parent="1" vertex="1">
          <mxGeometry x="202" y="117" width="100" height="60" as="geometry" />
        </mxCell>
        <mxCell id="T0Hc3pSAEqjk6suuljC6-1" value="" style="shape=table;html=1;whiteSpace=wrap;startSize=0;container=1;collapsible=0;childLayout=tableLayout;" parent="1" vertex="1">
          <mxGeometry x="50" y="490" width="320" height="110" as="geometry" />
        </mxCell>
        <mxCell id="T0Hc3pSAEqjk6suuljC6-2" value="" style="shape=partialRectangle;html=1;whiteSpace=wrap;collapsible=0;dropTarget=0;pointerEvents=0;fillColor=none;top=0;left=0;bottom=0;right=0;points=[[0,0.5],[1,0.5]];portConstraint=eastwest;" parent="T0Hc3pSAEqjk6suuljC6-1" vertex="1">
          <mxGeometry width="320" height="28" as="geometry" />
        </mxCell>
        <mxCell id="T0Hc3pSAEqjk6suuljC6-3" value="Projet" style="shape=partialRectangle;html=1;whiteSpace=wrap;connectable=0;overflow=hidden;fillColor=none;top=0;left=0;bottom=0;right=0;" parent="T0Hc3pSAEqjk6suuljC6-2" vertex="1">
          <mxGeometry width="100" height="28" as="geometry">
            <mxRectangle width="100" height="28" as="alternateBounds" />
          </mxGeometry>
        </mxCell>
        <mxCell id="T0Hc3pSAEqjk6suuljC6-4" value="Crossy road mld" style="shape=partialRectangle;html=1;whiteSpace=wrap;connectable=0;overflow=hidden;fillColor=none;top=0;left=0;bottom=0;right=0;" parent="T0Hc3pSAEqjk6suuljC6-2" vertex="1">
          <mxGeometry x="100" width="220" height="28" as="geometry">
            <mxRectangle width="220" height="28" as="alternateBounds" />
          </mxGeometry>
        </mxCell>
        <mxCell id="T0Hc3pSAEqjk6suuljC6-5" value="" style="shape=partialRectangle;html=1;whiteSpace=wrap;collapsible=0;dropTarget=0;pointerEvents=0;fillColor=none;top=0;left=0;bottom=0;right=0;points=[[0,0.5],[1,0.5]];portConstraint=eastwest;" parent="T0Hc3pSAEqjk6suuljC6-1" vertex="1">
          <mxGeometry y="28" width="320" height="27" as="geometry" />
        </mxCell>
        <mxCell id="T0Hc3pSAEqjk6suuljC6-6" value="Titre" style="shape=partialRectangle;html=1;whiteSpace=wrap;connectable=0;overflow=hidden;fillColor=none;top=0;left=0;bottom=0;right=0;" parent="T0Hc3pSAEqjk6suuljC6-5" vertex="1">
          <mxGeometry width="100" height="27" as="geometry">
            <mxRectangle width="100" height="27" as="alternateBounds" />
          </mxGeometry>
        </mxCell>
        <mxCell id="T0Hc3pSAEqjk6suuljC6-7" value="Crossy road" style="shape=partialRectangle;html=1;whiteSpace=wrap;connectable=0;overflow=hidden;fillColor=none;top=0;left=0;bottom=0;right=0;" parent="T0Hc3pSAEqjk6suuljC6-5" vertex="1">
          <mxGeometry x="100" width="220" height="27" as="geometry">
            <mxRectangle width="220" height="27" as="alternateBounds" />
          </mxGeometry>
        </mxCell>
        <mxCell id="T0Hc3pSAEqjk6suuljC6-8" value="" style="shape=partialRectangle;html=1;whiteSpace=wrap;collapsible=0;dropTarget=0;pointerEvents=0;fillColor=none;top=0;left=0;bottom=0;right=0;points=[[0,0.5],[1,0.5]];portConstraint=eastwest;" parent="T0Hc3pSAEqjk6suuljC6-1" vertex="1">
          <mxGeometry y="55" width="320" height="28" as="geometry" />
        </mxCell>
        <mxCell id="T0Hc3pSAEqjk6suuljC6-9" value="Auteur" style="shape=partialRectangle;html=1;whiteSpace=wrap;connectable=0;overflow=hidden;fillColor=none;top=0;left=0;bottom=0;right=0;" parent="T0Hc3pSAEqjk6suuljC6-8" vertex="1">
          <mxGeometry width="100" height="28" as="geometry">
            <mxRectangle width="100" height="28" as="alternateBounds" />
          </mxGeometry>
        </mxCell>
        <mxCell id="T0Hc3pSAEqjk6suuljC6-10" value="Luca Giubbilei" style="shape=partialRectangle;html=1;whiteSpace=wrap;connectable=0;overflow=hidden;fillColor=none;top=0;left=0;bottom=0;right=0;" parent="T0Hc3pSAEqjk6suuljC6-8" vertex="1">
          <mxGeometry x="100" width="220" height="28" as="geometry">
            <mxRectangle width="220" height="28" as="alternateBounds" />
          </mxGeometry>
        </mxCell>
        <mxCell id="T0Hc3pSAEqjk6suuljC6-11" value="" style="shape=partialRectangle;html=1;whiteSpace=wrap;collapsible=0;dropTarget=0;pointerEvents=0;fillColor=none;top=0;left=0;bottom=0;right=0;points=[[0,0.5],[1,0.5]];portConstraint=eastwest;" parent="T0Hc3pSAEqjk6suuljC6-1" vertex="1">
          <mxGeometry y="83" width="320" height="27" as="geometry" />
        </mxCell>
        <mxCell id="T0Hc3pSAEqjk6suuljC6-12" value="Version" style="shape=partialRectangle;html=1;whiteSpace=wrap;connectable=0;overflow=hidden;fillColor=none;top=0;left=0;bottom=0;right=0;" parent="T0Hc3pSAEqjk6suuljC6-11" vertex="1">
          <mxGeometry width="100" height="27" as="geometry">
            <mxRectangle width="100" height="27" as="alternateBounds" />
          </mxGeometry>
        </mxCell>
        <mxCell id="T0Hc3pSAEqjk6suuljC6-13" value="1.0" style="shape=partialRectangle;html=1;whiteSpace=wrap;connectable=0;overflow=hidden;fillColor=none;top=0;left=0;bottom=0;right=0;" parent="T0Hc3pSAEqjk6suuljC6-11" vertex="1">
          <mxGeometry x="100" width="220" height="27" as="geometry">
            <mxRectangle width="220" height="27" as="alternateBounds" />
          </mxGeometry>
        </mxCell>
      </root>
    </mxGraphModel>
  </diagram>
</mxfile>
